<?xml version="1.0" encoding="utf-8"?>
<!DOCTYPE svg PUBLIC "-//W3C//DTD SVG 1.1//EN" "http://www.w3.org/Graphics/SVG/1.1/DTD/svg11.dtd">
<svg version="1.1" baseProfile="full"
 xmlns="http://www.w3.org/2000/svg"
 xmlns:xlink="http://www.w3.org/1999/xlink"
 xmlns:ev="http://www.w3.org/2001/xml-events" 
  height="50px" 
  width="15px" 
>
<path fill="rgb( 78, 77, 77 )"
 d="M14.991,47.988 C14.991,47.988 13.306,49.002 13.306,49.002 C13.306,49.002 0.013,25.005 0.013,25.005 C0.013,25.005 0.009,25.003 0.009,25.003 C0.009,25.003 0.01,25 0.01,25 C0.01,25 0.009,24.998 0.009,24.998 C0.009,24.998 0.013,24.995 0.013,24.995 C0.013,24.995 13.306,0.99799999999999 13.306,0.99799999999999 C13.306,0.99799999999999 14.991,2.012 14.991,2.012 C14.991,2.012 2.257,25 2.257,25 C2.257,25 14.991,47.988 14.991,47.988 Z "/>
</svg>
