<?xml version="1.0" encoding="utf-8"?>
<!DOCTYPE svg PUBLIC "-//W3C//DTD SVG 1.1//EN" "http://www.w3.org/Graphics/SVG/1.1/DTD/svg11.dtd">
<svg version="1.1" baseProfile="full"
 xmlns="http://www.w3.org/2000/svg"
 xmlns:xlink="http://www.w3.org/1999/xlink"
 xmlns:ev="http://www.w3.org/2001/xml-events" 
  height="50px" 
  width="15px" 
>
<path fill="rgb( 255, 255, 255 )"
 d="M14.99,25 C14.99,25 14.991,25.003 14.991,25.003 C14.991,25.003 14.987,25.005 14.987,25.005 C14.987,25.005 1.69400000000002,49.002 1.69400000000002,49.002 C1.69400000000002,49.002 0.00900000000001,47.988 0.00900000000001,47.988 C0.00900000000001,47.988 12.743,25 12.743,25 C12.743,25 0.00900000000001,2.012 0.00900000000001,2.012 C0.00900000000001,2.012 1.69400000000002,0.99799999999999 1.69400000000002,0.99799999999999 C1.69400000000002,0.99799999999999 14.987,24.995 14.987,24.995 C14.987,24.995 14.991,24.998 14.991,24.998 C14.991,24.998 14.99,25 14.99,25 Z "/>
</svg>
