<?xml version="1.0" encoding="utf-8"?>
<!DOCTYPE svg PUBLIC "-//W3C//DTD SVG 1.1//EN" "http://www.w3.org/Graphics/SVG/1.1/DTD/svg11.dtd">
<svg version="1.1" baseProfile="full"
 xmlns="http://www.w3.org/2000/svg"
 xmlns:xlink="http://www.w3.org/1999/xlink"
 xmlns:ev="http://www.w3.org/2001/xml-events" 
  height="33px" 
  width="61px" 
>
<path fill="rgb( 184, 232, 233 )"
 d="M1.03500000000003,30.117 C1.16500000000002,29.591 21.365,19.843 21.735,19.61 C36.264,28.193 49.362,15.018 49.362,15.018 C48.702,16.167 33.867,25.469 19.849,15.705 C24.26,12.848 35.199,9.982 42.437,5.79499999999999 C43.825,4.993 45.181,3.03 48.338,2.19200000000001 C52.905,0.97900000000001 56.746,5.46000000000001 56.746,5.46000000000001 C56.746,5.46000000000001 58.576,6.25 59.839,6.80199999999999 C60.719,7.18799999999999 57.745,7.85599999999999 56.7,9.041 C55.655,10.227 56.718,13.19 56.7,14.573 C56.547,25.95 38.537,28.669 38.014,29.278 C37.491,29.889 39.32,31.961 39.32,31.961 C39.32,31.961 38.537,32.097 38.014,31.961 C37.491,31.832 36.185,29.278 36.185,29.278 C29.521,29.625 19.415,24.202 16.976,24.849 C14.808,25.424 2.07900000000001,31.303 1.55599999999998,31.303 C1.03500000000003,31.303 0.904,30.645 1.03500000000003,30.117 ZM52.76,7.71899999999999 C53.516,7.71899999999999 54.132,7.09800000000001 54.132,6.33600000000001 C54.132,5.56999999999999 53.516,4.952 52.76,4.952 C52.003,4.952 51.388,5.56999999999999 51.388,6.33600000000001 C51.388,7.09800000000001 52.004,7.71899999999999 52.76,7.71899999999999 Z "/>
</svg>
