<?xml version="1.0" encoding="utf-8"?>
<!DOCTYPE svg PUBLIC "-//W3C//DTD SVG 1.1//EN" "http://www.w3.org/Graphics/SVG/1.1/DTD/svg11.dtd">
<svg version="1.1" baseProfile="full"
 xmlns="http://www.w3.org/2000/svg"
 xmlns:xlink="http://www.w3.org/1999/xlink"
 xmlns:ev="http://www.w3.org/2001/xml-events" 
  height="27px" 
  width="27px" 
>
<path fill="rgb( 163, 163, 163 )"
 d="M26.988,25.544 C26.988,25.544 25.544,26.988 25.544,26.988 C25.544,26.988 13.5,14.944 13.5,14.944 C13.5,14.944 1.456,26.988 1.456,26.988 C1.456,26.988 0.012,25.544 0.012,25.544 C0.012,25.544 12.056,13.5 12.056,13.5 C12.056,13.5 0.012,1.456 0.012,1.456 C0.012,1.456 1.456,0.012 1.456,0.012 C1.456,0.012 13.5,12.056 13.5,12.056 C13.5,12.056 25.544,0.012 25.544,0.012 C25.544,0.012 26.988,1.456 26.988,1.456 C26.988,1.456 14.944,13.5 14.944,13.5 C14.944,13.5 26.988,25.544 26.988,25.544 Z "/>
</svg>
