<?xml version="1.0" encoding="utf-8"?>
<!DOCTYPE svg PUBLIC "-//W3C//DTD SVG 1.1//EN" "http://www.w3.org/Graphics/SVG/1.1/DTD/svg11.dtd">
<svg version="1.1" baseProfile="full"
 xmlns="http://www.w3.org/2000/svg"
 xmlns:xlink="http://www.w3.org/1999/xlink"
 xmlns:ev="http://www.w3.org/2001/xml-events" 
  height="18px" 
  width="9px" 
>
<path fill="rgb( 255, 255, 255 )"
 d="M0.402,6.10699999999997 C0.402,6.10699999999997 2.149,6.10699999999997 2.149,6.10699999999997 C2.149,6.10699999999997 2.149,5.30600000000004 2.149,5.30600000000004 C2.149,5.30600000000004 2.149,4.51999999999998 2.149,4.51999999999998 C2.149,4.51999999999998 2.149,4.3900000000001 2.149,4.3900000000001 C2.149,3.63400000000001 2.16800000000001,2.46599999999989 2.711,1.74299999999994 C3.28400000000001,0.97800000000007 4.06999999999999,0.45800000000008 5.422,0.45800000000008 C7.625,0.45800000000008 8.554,0.77500000000009 8.554,0.77500000000009 C8.554,0.77500000000009 8.117,3.39200000000005 8.117,3.39200000000005 C8.117,3.39200000000005 7.389,3.17900000000009 6.70999999999999,3.17900000000009 C6.03100000000001,3.17900000000009 5.422,3.42499999999995 5.422,4.11200000000008 C5.422,4.11200000000008 5.422,4.3900000000001 5.422,4.3900000000001 C5.422,4.3900000000001 5.422,5.30600000000004 5.422,5.30600000000004 C5.422,5.30600000000004 5.422,6.10699999999997 5.422,6.10699999999997 C5.422,6.10699999999997 8.208,6.10699999999997 8.208,6.10699999999997 C8.208,6.10699999999997 8.01300000000001,8.66200000000003 8.01300000000001,8.66200000000003 C8.01300000000001,8.66200000000003 5.422,8.66200000000003 5.422,8.66200000000003 C5.422,8.66200000000003 5.422,17.54 5.422,17.54 C5.422,17.54 2.149,17.54 2.149,17.54 C2.149,17.54 2.149,8.66200000000003 2.149,8.66200000000003 C2.149,8.66200000000003 0.402,8.66200000000003 0.402,8.66200000000003 C0.402,8.66200000000003 0.402,6.10699999999997 0.402,6.10699999999997 C0.402,6.10699999999997 0.402,6.10699999999997 0.402,6.10699999999997 Z "/>
</svg>
