<?xml version="1.0" encoding="utf-8"?>
<!DOCTYPE svg PUBLIC "-//W3C//DTD SVG 1.1//EN" "http://www.w3.org/Graphics/SVG/1.1/DTD/svg11.dtd">
<svg version="1.1" baseProfile="full"
 xmlns="http://www.w3.org/2000/svg"
 xmlns:xlink="http://www.w3.org/1999/xlink"
 xmlns:ev="http://www.w3.org/2001/xml-events" 
  height="34px" 
  width="45px" 
>
<path fill="rgb( 141, 141, 141 )"
 d="M36.246,2.16100000000006 C33.049,0.71200000000044 29.226,1.08899999999994 26.285,2.82099999999991 C26.285,2.82099999999991 21.742,10.8509999999997 21.742,10.8509999999997 C21.742,10.8509999999997 30.12,16.6379999999999 30.12,16.6379999999999 C30.12,16.6379999999999 20.752,25.4260000000004 20.752,25.4260000000004 C20.752,25.4260000000004 24.535,16.6379999999999 24.535,16.6379999999999 C24.535,16.6379999999999 13.364,13.7439999999997 13.364,13.7439999999997 C13.364,13.7439999999997 19.481,3.41499999999996 19.481,3.41499999999996 C16.456,1.19800000000032 12.184,0.5619999999999 8.65100000000001,2.16100000000006 C3.35000000000002,4.56800000000021 0.815,10.7169999999996 5.00299999999999,17.9740000000002 C7.97899999999999,23.1369999999997 13.252,27.027 22.449,33.9989999999998 C31.649,27.027 36.921,23.1369999999997 39.895,17.9740000000002 C44.083,10.7169999999996 41.545,4.56800000000021 36.246,2.16100000000006 Z "/>
</svg>
