<?xml version="1.0" encoding="utf-8"?>
<!DOCTYPE svg PUBLIC "-//W3C//DTD SVG 1.1//EN" "http://www.w3.org/Graphics/SVG/1.1/DTD/svg11.dtd">
<svg version="1.1" baseProfile="full"
 xmlns="http://www.w3.org/2000/svg"
 xmlns:xlink="http://www.w3.org/1999/xlink"
 xmlns:ev="http://www.w3.org/2001/xml-events" 
  height="35px" 
  width="46px" 
>
<path fill="rgb( 255, 255, 255 )"
 d="M44,28 C44,28 29,28 29,28 C29,28 29,32 29,32 C29,32 35.5,32 35.5,32 C36.328,32 37,32.672 37,33.5 C37,34.328 36.328,35 35.5,35 C35.5,35 10.5,35 10.5,35 C9.672,35 9,34.328 9,33.5 C9,32.672 9.672,32 10.5,32 C10.5,32 17,32 17,32 C17,32 17,28 17,28 C17,28 2,28 2,28 C0.895,28 0,27.105 0,26 C0,26 0,2 0,2 C0,0.89499999999998 0.895,0 2,0 C2,0 44,0 44,0 C45.105,0 46,0.89499999999998 46,2 C46,2 46,26 46,26 C46,27.105 45.105,28 44,28 ZM43,3 C43,3 3,3 3,3 C3,3 3,23 3,23 C3,23 43,23 43,23 C43,23 43,3 43,3 Z "/>
</svg>
