<?xml version="1.0" encoding="utf-8"?>
<!DOCTYPE svg PUBLIC "-//W3C//DTD SVG 1.1//EN" "http://www.w3.org/Graphics/SVG/1.1/DTD/svg11.dtd">
<svg version="1.1" baseProfile="full"
 xmlns="http://www.w3.org/2000/svg"
 xmlns:xlink="http://www.w3.org/1999/xlink"
 xmlns:ev="http://www.w3.org/2001/xml-events" 
  height="71px" 
  width="70px" 
>
<path fill="rgb( 45, 151, 222 )"
 d="M35,70.3339999999998 C15.762,70.3339999999998 0.167,54.7379999999998 0.167,35.5 C0.167,16.2620000000002 15.762,0.66699999999992 35,0.66699999999992 C54.238,0.66699999999992 69.833,16.2620000000002 69.833,35.5 C69.833,54.7379999999998 54.238,70.3339999999998 35,70.3339999999998 ZM35,5.16699999999992 C18.248,5.16699999999992 4.667,18.748 4.667,35.5 C4.667,52.2530000000002 18.248,65.8339999999998 35,65.8339999999998 C51.752,65.8339999999998 65.334,52.2530000000002 65.334,35.5 C65.334,18.748 51.752,5.16699999999992 35,5.16699999999992 ZM41.734,35.5 C41.734,35.5 45.001,35.5 45.001,35.5 C45.001,29.9769999999999 40.523,25.5 35,25.5 C33.084,25.5 31.3,26.0479999999998 29.779,26.982 C29.779,26.982 27.698,23.377 27.698,23.377 C29.832,22.0880000000002 32.325,21.3330000000001 35,21.3330000000001 C42.824,21.3330000000001 49.167,27.6759999999999 49.167,35.5 C49.167,35.5 52.962,35.5 52.962,35.5 C52.962,35.5 47.348,45.2240000000002 47.348,45.2240000000002 C47.348,45.2240000000002 41.734,35.5 41.734,35.5 ZM24.999,35.5 C24.999,41.0230000000001 29.477,45.5010000000002 35,45.5010000000002 C36.999,45.5010000000002 38.855,44.9079999999999 40.417,43.8980000000001 C40.417,43.8980000000001 42.499,47.5039999999999 42.499,47.5039999999999 C40.322,48.8670000000002 37.757,49.6669999999999 35,49.6669999999999 C27.176,49.6669999999999 20.833,43.3240000000001 20.833,35.5 C20.833,35.5 17.234,35.5 17.234,35.5 C17.234,35.5 22.848,25.777 22.848,25.777 C22.848,25.777 28.462,35.5 28.462,35.5 C28.462,35.5 24.999,35.5 24.999,35.5 Z "/>
</svg>
