<?xml version="1.0" encoding="utf-8"?>
<!DOCTYPE svg PUBLIC "-//W3C//DTD SVG 1.1//EN" "http://www.w3.org/Graphics/SVG/1.1/DTD/svg11.dtd">
<svg version="1.1" baseProfile="full"
 xmlns="http://www.w3.org/2000/svg"
 xmlns:xlink="http://www.w3.org/1999/xlink"
 xmlns:ev="http://www.w3.org/2001/xml-events" 
  height="21px" 
  width="25px" 
>
<path fill="rgb( 255, 255, 255 )"
 d="M24.006,14.6189999999997 C24.006,14.6189999999997 22.622,16.0029999999997 22.622,16.0029999999997 C22.622,16.0029999999997 19.5,12.8810000000003 19.5,12.8810000000003 C19.5,12.8810000000003 16.378,16.0029999999997 16.378,16.0029999999997 C16.378,16.0029999999997 14.994,14.6189999999997 14.994,14.6189999999997 C14.994,14.6189999999997 18.117,11.4970000000003 18.117,11.4970000000003 C18.117,11.4970000000003 15.015,8.39500000000044 15.015,8.39500000000044 C15.015,8.39500000000044 16.398,7.01199999999972 16.398,7.01199999999972 C16.398,7.01199999999972 19.5,10.1139999999996 19.5,10.1139999999996 C19.5,10.1139999999996 22.602,7.01199999999972 22.602,7.01199999999972 C22.602,7.01199999999972 23.985,8.39500000000044 23.985,8.39500000000044 C23.985,8.39500000000044 20.883,11.4970000000003 20.883,11.4970000000003 C20.883,11.4970000000003 24.006,14.6189999999997 24.006,14.6189999999997 ZM4.21899999999999,15.1310000000003 C4.123,15.0479999999998 3.96299999999999,14.9970000000003 3.83199999999999,14.9960000000001 C2.66200000000001,14.9859999999999 1.493,14.9899999999998 0.32299999999999,14.9899999999998 C0.224,14.9899999999998 0.126,14.9899999999998 0.012,14.9899999999998 C0.012,12.3180000000002 0.012,9.67500000000018 0.012,6.99799999999959 C0.114,6.99799999999959 0.211,6.99799999999959 0.30800000000001,6.99799999999959 C1.761,6.99799999999959 3.214,6.99399999999969 4.66800000000001,7.00399999999991 C4.873,7.00500000000011 5.005,6.9350000000004 5.139,6.80100000000039 C7.017,4.92100000000028 8.898,3.04600000000028 10.779,1.17000000000007 C10.834,1.11499999999978 10.896,1.06800000000021 10.986,0.98999999999978 C10.986,7.67100000000028 10.986,14.3109999999997 10.986,21 C10.767,20.8140000000003 10.578,20.6549999999997 10.392,20.4939999999997 C8.33499999999999,18.7049999999999 6.28100000000001,16.9139999999998 4.21899999999999,15.1310000000003 Z "/>
</svg>
