<?xml version="1.0" encoding="utf-8"?>
<!DOCTYPE svg PUBLIC "-//W3C//DTD SVG 1.1//EN" "http://www.w3.org/Graphics/SVG/1.1/DTD/svg11.dtd">
<svg version="1.1" baseProfile="full"
 xmlns="http://www.w3.org/2000/svg"
 xmlns:xlink="http://www.w3.org/1999/xlink"
 xmlns:ev="http://www.w3.org/2001/xml-events" 
  height="21px" 
  width="14px" 
>
<path fill="rgb( 37, 196, 199 )"
 d="M12.846,10.74 C12.563,10.1659999999999 11.781,9.68900000000008 10.74,10.518 C9.33500000000001,11.6379999999999 7.07599999999999,11.6379999999999 7.07599999999999,11.6379999999999 C7.07599999999999,11.6379999999999 4.81800000000001,11.6379999999999 3.41200000000001,10.518 C2.37200000000001,9.68900000000008 1.589,10.1659999999999 1.30699999999999,10.74 C0.81399999999999,11.741 1.37100000000001,12.2249999999999 2.62700000000001,13.04 C3.69999999999999,13.7370000000001 5.17400000000001,13.9970000000001 6.126,14.0940000000001 C6.126,14.0940000000001 5.33099999999999,14.8979999999999 5.33099999999999,14.8979999999999 C4.21199999999999,16.03 3.131,17.1220000000001 2.38200000000001,17.8800000000001 C1.93299999999999,18.3340000000001 1.93299999999999,19.069 2.38200000000001,19.5219999999999 C2.38200000000001,19.5219999999999 2.517,19.6590000000001 2.517,19.6590000000001 C2.74100000000001,19.885 3.03299999999999,19.998 3.32599999999999,19.999 C3.32599999999999,19.999 3.33099999999999,19.999 3.33099999999999,19.999 C3.624,19.998 3.917,19.885 4.13999999999999,19.6590000000001 C4.13999999999999,19.6590000000001 7.09,16.6759999999999 7.09,16.6759999999999 C8.209,17.808 9.28899999999999,18.9010000000001 10.039,19.6590000000001 C10.487,20.1120000000001 11.214,20.1120000000001 11.662,19.6590000000001 C11.662,19.6590000000001 11.797,19.5219999999999 11.797,19.5219999999999 C12.246,19.068 12.246,18.3340000000001 11.797,17.8800000000001 C11.797,17.8800000000001 8.84800000000001,14.8979999999999 8.84800000000001,14.8979999999999 C8.84800000000001,14.8979999999999 8.05099999999999,14.0920000000001 8.05099999999999,14.0920000000001 C9.00299999999999,13.9929999999999 10.462,13.731 11.526,13.04 C12.782,12.2249999999999 13.338,11.741 12.846,10.74 C12.846,10.74 12.846,10.74 12.846,10.74 ZM7.07599999999999,2.57099999999991 C8.43600000000001,2.57099999999991 9.53899999999999,3.68599999999992 9.53899999999999,5.06099999999992 C9.53899999999999,6.43599999999992 8.43600000000001,7.55099999999993 7.07599999999999,7.55099999999993 C5.71600000000001,7.55099999999993 4.614,6.43599999999992 4.614,5.06099999999992 C4.614,3.68599999999992 5.71600000000001,2.57099999999991 7.07599999999999,2.57099999999991 C7.07599999999999,2.57099999999991 7.07599999999999,2.57099999999991 7.07599999999999,2.57099999999991 ZM7.07599999999999,10.123 C9.84100000000001,10.123 12.082,7.85599999999999 12.082,5.06099999999992 C12.082,2.26600000000008 9.84100000000001,0 7.07599999999999,0 C4.31200000000001,0 2.071,2.26600000000008 2.071,5.06099999999992 C2.071,7.85599999999999 4.31200000000001,10.123 7.07599999999999,10.123 C7.07599999999999,10.123 7.07599999999999,10.123 7.07599999999999,10.123 Z "/>
</svg>
