<?xml version="1.0" encoding="utf-8"?>
<!DOCTYPE svg PUBLIC "-//W3C//DTD SVG 1.1//EN" "http://www.w3.org/Graphics/SVG/1.1/DTD/svg11.dtd">
<svg version="1.1" baseProfile="full"
 xmlns="http://www.w3.org/2000/svg"
 xmlns:xlink="http://www.w3.org/1999/xlink"
 xmlns:ev="http://www.w3.org/2001/xml-events" 
  height="21px" 
  width="27px" 
>
<path fill="rgb( 45, 151, 222 )"
 d="M11.607,14.414 C11.421,13.848 11.102,13.3299999999999 10.652,12.8610000000001 C10.181,12.373 9.563,11.9929999999999 8.799,11.7190000000001 C8.034,11.4459999999999 7.044,11.309 5.829,11.309 C5.829,11.309 4.182,11.309 4.182,11.309 C4.378,9.27800000000002 5.103,7.54899999999998 6.358,6.12300000000005 C7.613,4.69800000000009 9.348,3.44699999999989 11.564,2.37300000000005 C11.564,2.37300000000005 10.272,0.29299999999989 10.272,0.29299999999989 C7.472,1.52399999999989 5.078,3.32999999999993 3.09,5.71299999999997 C1.103,8.096 0.109,10.4590000000001 0.109,12.8030000000001 C0.109,15.3230000000001 0.687,17.2950000000001 1.842,18.721 C2.997,20.1469999999999 4.652,20.8599999999999 6.806,20.8599999999999 C8.176,20.8599999999999 9.366,20.3910000000001 10.374,19.453 C11.382,18.5160000000001 11.887,17.422 11.887,16.172 C11.887,15.567 11.793,14.981 11.607,14.414 ZM26.05,14.414 C25.864,13.848 25.545,13.3299999999999 25.095,12.8610000000001 C24.624,12.373 24.006,11.9929999999999 23.242,11.7190000000001 C22.478,11.4459999999999 21.487,11.309 20.272,11.309 C20.272,11.309 18.625,11.309 18.625,11.309 C18.821,9.27800000000002 19.546,7.54899999999998 20.802,6.12300000000005 C22.056,4.69800000000009 23.792,3.44699999999989 26.008,2.37300000000005 C26.008,2.37300000000005 24.716,0.29299999999989 24.716,0.29299999999989 C21.915,1.52399999999989 19.521,3.32999999999993 17.534,5.71299999999997 C15.546,8.096 14.553,10.4590000000001 14.553,12.8030000000001 C14.553,15.3230000000001 15.13,17.2950000000001 16.285,18.721 C17.441,20.1469999999999 19.095,20.8599999999999 21.249,20.8599999999999 C22.619,20.8599999999999 23.809,20.3910000000001 24.818,19.453 C25.826,18.5160000000001 26.33,17.422 26.33,16.172 C26.33,15.567 26.237,14.981 26.05,14.414 Z "/>
</svg>
