<?xml version="1.0" encoding="utf-8"?>
<!DOCTYPE svg PUBLIC "-//W3C//DTD SVG 1.1//EN" "http://www.w3.org/Graphics/SVG/1.1/DTD/svg11.dtd">
<svg version="1.1" baseProfile="full"
 xmlns="http://www.w3.org/2000/svg"
 xmlns:xlink="http://www.w3.org/1999/xlink"
 xmlns:ev="http://www.w3.org/2001/xml-events" 
  height="29px" 
  width="30px" 
>
<path fill="rgb( 34, 31, 31 )"
 d="M28.264,27.263 C27.295,28.234 25.723,28.234 24.753,27.263 C24.753,27.263 21.452,23.957 21.452,23.957 C20.881,23.386 20.656,22.606 20.757,21.863 C20.757,21.863 19.769,20.873 19.769,20.873 C17.671,22.722 14.926,23.852 11.911,23.852 C5.33300000000003,23.852 0,18.513 0,11.926 C0,5.34 5.33300000000003,0 11.911,0 C18.489,0 23.821,5.34 23.821,11.926 C23.821,14.414 23.059,16.722 21.758,18.633 C21.758,18.633 22.87,19.747 22.87,19.747 C23.613,19.645 24.392,19.871 24.962,20.442 C24.962,20.442 28.264,23.748 28.264,23.748 C29.233,24.719 29.233,26.292 28.264,27.263 ZM11.911,3.81699999999999 C7.43799999999999,3.81699999999999 3.81099999999998,7.447 3.81099999999998,11.926 C3.81099999999998,16.405 7.43799999999999,20.036 11.911,20.036 C14.172,20.036 16.215,19.106 17.685,17.609 C17.756,17.394 17.861,17.189 18.032,17.018 C18.137,16.913 18.263,16.849 18.387,16.782 C19.402,15.427 20.01,13.75 20.01,11.926 C20.01,7.447 16.384,3.81699999999999 11.911,3.81699999999999 Z "/>
</svg>
