<?xml version="1.0" encoding="utf-8"?>
<!DOCTYPE svg PUBLIC "-//W3C//DTD SVG 1.1//EN" "http://www.w3.org/Graphics/SVG/1.1/DTD/svg11.dtd">
<svg version="1.1" baseProfile="full"
 xmlns="http://www.w3.org/2000/svg"
 xmlns:xlink="http://www.w3.org/1999/xlink"
 xmlns:ev="http://www.w3.org/2001/xml-events" 
  height="21px" 
  width="21px" 
>
<path fill="rgb( 255, 255, 255 )"
 d="M15.117,18.0100000000002 C14.741,17.0010000000002 14.364,15.991 13.994,14.9989999999998 C14.406,14.7439999999997 14.818,14.5299999999997 15.187,14.2529999999997 C16.227,13.4740000000002 16.884,12.4340000000002 16.921,11.0460000000003 C16.966,9.33899999999994 15.995,7.90099999999984 14.421,7.27599999999984 C14.331,7.23999999999978 14.241,7.20499999999993 14.124,7.15999999999985 C14.417,6.10400000000027 14.707,5.0600000000004 14.997,4.01599999999962 C17.705,4.83600000000024 19.85,7.35499999999956 20.006,10.5429999999997 C20.181,14.1139999999996 17.942,16.8440000000001 15.117,18.0100000000002 ZM4.21899999999999,15.1310000000003 C4.123,15.0479999999998 3.96299999999999,14.9970000000003 3.83199999999999,14.9960000000001 C2.66200000000001,14.9859999999999 1.493,14.9899999999998 0.32299999999999,14.9899999999998 C0.224,14.9899999999998 0.126,14.9899999999998 0.012,14.9899999999998 C0.012,12.3180000000002 0.012,9.67500000000018 0.012,6.99799999999959 C0.114,6.99799999999959 0.211,6.99799999999959 0.30800000000001,6.99799999999959 C1.761,6.99799999999959 3.214,6.99399999999969 4.66800000000001,7.00399999999991 C4.873,7.00500000000011 5.005,6.9350000000004 5.139,6.80100000000039 C7.017,4.92100000000028 8.898,3.04600000000028 10.779,1.17000000000007 C10.834,1.11499999999978 10.896,1.06800000000021 10.986,0.98999999999978 C10.986,7.67100000000028 10.986,14.3109999999997 10.986,21 C10.767,20.8140000000003 10.578,20.6549999999997 10.392,20.4939999999997 C8.33499999999999,18.7049999999999 6.28100000000001,16.9139999999998 4.21899999999999,15.1310000000003 Z "/>
</svg>
