<?xml version="1.0" encoding="utf-8"?>
<!DOCTYPE svg PUBLIC "-//W3C//DTD SVG 1.1//EN" "http://www.w3.org/Graphics/SVG/1.1/DTD/svg11.dtd">
<svg version="1.1" baseProfile="full"
 xmlns="http://www.w3.org/2000/svg"
 xmlns:xlink="http://www.w3.org/1999/xlink"
 xmlns:ev="http://www.w3.org/2001/xml-events" 
  height="16px" 
  width="18px" 
>
<path fill="rgb( 37, 196, 199 )"
 d="M17.855,2.4380000000001 C17.202,2.73099999999999 16.501,2.92800000000011 15.765,3.01700000000005 C16.516,2.5619999999999 17.093,1.84099999999989 17.365,0.98199999999997 C16.662,1.404 15.883,1.71000000000004 15.055,1.875 C14.391,1.16000000000008 13.446,0.71299999999997 12.4,0.71299999999997 C10.391,0.71299999999997 8.762,2.3599999999999 8.762,4.39200000000005 C8.762,4.68000000000006 8.79400000000001,4.96100000000001 8.85599999999999,5.23000000000002 C5.833,5.077 3.15199999999999,3.61200000000008 1.358,1.38699999999994 C1.04499999999999,1.93000000000006 0.86600000000001,2.5619999999999 0.86600000000001,3.2360000000001 C0.86600000000001,4.51199999999994 1.50800000000001,5.63799999999992 2.48400000000001,6.298 C1.88800000000001,6.279 1.327,6.11300000000006 0.83600000000001,5.83799999999997 C0.83600000000001,5.85300000000007 0.83600000000001,5.86899999999991 0.83600000000001,5.88400000000001 C0.83600000000001,7.66599999999994 2.09,9.15300000000002 3.75399999999999,9.49099999999999 C3.44900000000001,9.57500000000005 3.12700000000001,9.61999999999989 2.79599999999999,9.61999999999989 C2.56100000000001,9.61999999999989 2.333,9.59699999999998 2.11099999999999,9.55400000000009 C2.57400000000001,11.0150000000001 3.91800000000001,12.079 5.50899999999999,12.1089999999999 C4.26400000000001,13.095 2.696,13.683 0.99199999999999,13.683 C0.69800000000001,13.683 0.40799999999999,13.6659999999999 0.124,13.6320000000001 C1.73400000000001,14.6759999999999 3.64599999999999,15.2850000000001 5.69999999999999,15.2850000000001 C12.391,15.2850000000001 16.05,9.67900000000009 16.05,4.81799999999998 C16.05,4.65900000000011 16.047,4.5 16.04,4.3420000000001 C16.75,3.82400000000007 17.367,3.17599999999993 17.855,2.4380000000001 C17.855,2.4380000000001 17.855,2.4380000000001 17.855,2.4380000000001 Z "/>
</svg>
