<?xml version="1.0" encoding="utf-8"?>
<!DOCTYPE svg PUBLIC "-//W3C//DTD SVG 1.1//EN" "http://www.w3.org/Graphics/SVG/1.1/DTD/svg11.dtd">
<svg version="1.1" baseProfile="full"
 xmlns="http://www.w3.org/2000/svg"
 xmlns:xlink="http://www.w3.org/1999/xlink"
 xmlns:ev="http://www.w3.org/2001/xml-events" 
  height="16px" 
  width="12px" 
>
<path fill="rgb( 255, 255, 255 )"
 d="M0.029,0.66399999999999 C0.029,0.66399999999999 6.616,0.66399999999999 6.616,0.66399999999999 C8.784,0.66399999999999 10.629,1.73800000000006 10.627,3.91000000000008 C10.626,5.72299999999996 9.976,6.42800000000011 8.643,7.22499999999991 C8.757,7.32099999999991 9.521,7.55099999999993 9.778,7.67900000000009 C10.189,7.88400000000001 10.43,8.09099999999989 10.701,8.36899999999991 C11.457,9.14699999999993 11.598,9.85799999999995 11.598,11.078 C11.598,13.9100000000001 8.89,15.3340000000001 6.282,15.3340000000001 C6.282,15.3340000000001 0.001,15.3340000000001 0.001,15.3340000000001 C0.001,15.3340000000001 0.029,0.66399999999999 0.029,0.66399999999999 C0.029,0.66399999999999 0.029,0.66399999999999 0.029,0.66399999999999 ZM3.608,4.51800000000003 C3.608,4.51800000000003 3.608,6.423 3.608,6.423 C5.305,6.423 6.899,6.64899999999989 6.899,4.78899999999999 C6.899,3.06600000000003 5.095,3.34999999999991 3.607,3.34999999999991 C3.607,3.34999999999991 3.608,4.51800000000003 3.608,4.51800000000003 C3.608,4.51800000000003 3.608,4.51800000000003 3.608,4.51800000000003 ZM3.607,12.633 C5.467,12.633 7.764,12.943 7.804,10.809 C7.846,8.58200000000011 5.444,8.98399999999992 3.609,8.98399999999992 C3.609,8.98399999999992 3.607,12.633 3.607,12.633 C3.607,12.633 3.607,12.633 3.607,12.633 Z "/>
</svg>
