<?xml version="1.0" encoding="utf-8"?>
<!DOCTYPE svg PUBLIC "-//W3C//DTD SVG 1.1//EN" "http://www.w3.org/Graphics/SVG/1.1/DTD/svg11.dtd">
<svg version="1.1" baseProfile="full"
 xmlns="http://www.w3.org/2000/svg"
 xmlns:xlink="http://www.w3.org/1999/xlink"
 xmlns:ev="http://www.w3.org/2001/xml-events" 
  height="15px" 
  width="53px" 
>
<path fill="rgb( 0, 174, 239 )"
 d="M32.569,7.31999999999994 C32.569,8.05400000000009 32.52,8.81400000000008 32.423,9.59899999999993 C32.325,10.384 32.08,11.106 31.689,11.7639999999999 C31.295,12.421 30.708,12.9580000000001 29.925,13.377 C29.141,13.7950000000001 28.054,14.0050000000001 26.665,14.0050000000001 C25.329,14.0050000000001 24.279,13.7950000000001 23.513,13.377 C22.747,12.9580000000001 22.173,12.421 21.79,11.7639999999999 C21.407,11.106 21.171,10.384 21.082,9.59899999999993 C20.993,8.81400000000008 20.949,8.05400000000009 20.949,7.31999999999994 C20.949,6.72199999999998 21.007,6.05700000000002 21.123,5.32300000000009 C21.238,4.58799999999997 21.492,3.90200000000004 21.884,3.26099999999997 C22.275,2.62100000000009 22.85,2.08300000000008 23.607,1.64799999999991 C24.364,1.21299999999997 25.383,0.99499999999989 26.665,0.99499999999989 C27.966,0.99499999999989 29.003,1.18200000000002 29.778,1.55799999999999 C30.553,1.93299999999999 31.144,2.42499999999995 31.554,3.03099999999995 C31.964,3.63699999999994 32.236,4.31600000000003 32.369,5.06700000000001 C32.503,5.81799999999998 32.569,6.56899999999996 32.569,7.31999999999994 M45.152,6.45000000000005 C45.152,6.45000000000005 46.381,10.394 46.381,10.394 C46.381,10.394 46.407,10.3679999999999 46.407,10.3679999999999 C46.426,10.3679999999999 46.443,10.376 46.462,10.394 C46.462,10.394 47.716,6.14200000000005 47.716,6.14200000000005 C47.716,6.14200000000005 49.052,1.71199999999999 49.052,1.71199999999999 C49.088,1.52399999999989 49.141,1.40100000000007 49.213,1.33999999999992 C49.284,1.28199999999993 49.4,1.25099999999998 49.559,1.25099999999998 C49.559,1.25099999999998 51.697,1.25099999999998 51.697,1.25099999999998 C51.893,1.25099999999998 51.995,1.298 52.005,1.39200000000005 C52.013,1.4860000000001 51.999,1.5920000000001 51.963,1.71199999999999 C51.963,1.71199999999999 48.036,13.261 48.036,13.261 C47.948,13.5509999999999 47.828,13.7149999999999 47.676,13.749 C47.525,13.7819999999999 47.388,13.799 47.262,13.799 C47.262,13.799 45.74,13.799 45.74,13.799 C45.366,13.799 45.125,13.6289999999999 45.018,13.287 C45.018,13.287 44.084,10.598 44.084,10.598 C44.084,10.598 42.962,7.346 42.962,7.346 C42.962,7.346 42.908,7.346 42.908,7.346 C42.908,7.346 41.786,10.624 41.786,10.624 C41.786,10.624 40.877,13.21 40.877,13.21 C40.753,13.604 40.469,13.799 40.023,13.799 C40.023,13.799 38.634,13.799 38.634,13.799 C38.313,13.799 38.104,13.7429999999999 38.006,13.6320000000001 C37.908,13.521 37.815,13.347 37.726,13.1079999999999 C37.726,13.1079999999999 33.718,1.73800000000006 33.718,1.73800000000006 C33.683,1.61799999999994 33.683,1.50700000000006 33.718,1.40499999999997 C33.753,1.30199999999991 33.852,1.25099999999998 34.012,1.25099999999998 C34.012,1.25099999999998 36.149,1.25099999999998 36.149,1.25099999999998 C36.327,1.25099999999998 36.457,1.28500000000008 36.537,1.35400000000004 C36.617,1.42200000000003 36.684,1.54099999999994 36.737,1.71199999999999 C36.737,1.71199999999999 38.099,6.03999999999996 38.099,6.03999999999996 C38.099,6.03999999999996 39.435,10.47 39.435,10.47 C39.435,10.47 39.515,10.47 39.515,10.47 C39.515,10.47 40.797,6.60300000000007 40.797,6.60300000000007 C40.797,6.60300000000007 41.626,4.24700000000007 41.626,4.24700000000007 C41.626,4.24700000000007 40.797,1.73800000000006 40.797,1.73800000000006 C40.761,1.61799999999994 40.767,1.50700000000006 40.811,1.40499999999997 C40.856,1.30199999999991 40.949,1.25099999999998 41.091,1.25099999999998 C41.091,1.25099999999998 43.068,1.25099999999998 43.068,1.25099999999998 C43.264,1.25099999999998 43.398,1.28500000000008 43.47,1.35400000000004 C43.541,1.42200000000003 43.602,1.54999999999995 43.657,1.73800000000006 C43.657,1.73800000000006 45.152,6.45000000000005 45.152,6.45000000000005 ZM28.844,4.20900000000006 C28.844,4.20900000000006 26.426,11.538 26.426,11.538 C26.426,11.538 26.665,11.546 26.665,11.546 C27.271,11.546 27.765,11.4649999999999 28.149,11.3019999999999 C28.532,11.1410000000001 28.829,10.893 29.043,10.5599999999999 C29.256,10.2270000000001 29.399,9.80500000000006 29.471,9.29299999999989 C29.542,8.77999999999997 29.578,8.18299999999999 29.578,7.49900000000002 C29.578,6.81700000000001 29.542,6.22399999999993 29.471,5.72000000000003 C29.399,5.21599999999989 29.256,4.798 29.043,4.46499999999992 C28.984,4.37200000000007 28.916,4.28800000000001 28.844,4.20900000000006 ZM24.66,10.828 C24.66,10.828 27.09,3.471 27.09,3.471 C26.963,3.46100000000001 26.832,3.45399999999995 26.693,3.45399999999995 C26.122,3.45399999999995 25.659,3.53899999999999 25.304,3.71000000000004 C24.946,3.88000000000011 24.666,4.13599999999997 24.462,4.47700000000009 C24.256,4.81899999999996 24.115,5.24199999999996 24.035,5.74600000000009 C23.954,6.24900000000002 23.915,6.83400000000006 23.915,7.49900000000002 C23.915,8.18299999999999 23.954,8.77600000000007 24.035,9.27999999999997 C24.115,9.7829999999999 24.252,10.201 24.448,10.5350000000001 C24.511,10.6420000000001 24.58,10.7380000000001 24.66,10.828 ZM12.454,6.45000000000005 C12.454,6.45000000000005 13.682,10.394 13.682,10.394 C13.682,10.394 13.709,10.3679999999999 13.709,10.3679999999999 C13.727,10.3679999999999 13.744,10.376 13.763,10.394 C13.763,10.394 15.017,6.14200000000005 15.017,6.14200000000005 C15.017,6.14200000000005 16.354,1.71199999999999 16.354,1.71199999999999 C16.389,1.52399999999989 16.443,1.40100000000007 16.513,1.33999999999992 C16.585,1.28199999999993 16.701,1.25099999999998 16.861,1.25099999999998 C16.861,1.25099999999998 18.999,1.25099999999998 18.999,1.25099999999998 C19.194,1.25099999999998 19.296,1.298 19.306,1.39200000000005 C19.315,1.4860000000001 19.3,1.5920000000001 19.265,1.71199999999999 C19.265,1.71199999999999 15.338,13.261 15.338,13.261 C15.249,13.5509999999999 15.129,13.7149999999999 14.978,13.749 C14.826,13.7819999999999 14.689,13.799 14.563,13.799 C14.563,13.799 13.041,13.799 13.041,13.799 C12.667,13.799 12.427,13.6289999999999 12.32,13.287 C12.32,13.287 11.385,10.598 11.385,10.598 C11.385,10.598 10.263,7.346 10.263,7.346 C10.263,7.346 10.209,7.346 10.209,7.346 C10.209,7.346 9.08699999999999,10.624 9.08699999999999,10.624 C9.08699999999999,10.624 8.178,13.21 8.178,13.21 C8.054,13.604 7.77000000000001,13.799 7.32400000000001,13.799 C7.32400000000001,13.799 5.935,13.799 5.935,13.799 C5.61500000000001,13.799 5.405,13.7429999999999 5.30799999999999,13.6320000000001 C5.209,13.521 5.11600000000001,13.347 5.02699999999999,13.1079999999999 C5.02699999999999,13.1079999999999 1.01900000000001,1.73800000000006 1.01900000000001,1.73800000000006 C0.98400000000001,1.61799999999994 0.98400000000001,1.50700000000006 1.01900000000001,1.40499999999997 C1.05500000000001,1.30199999999991 1.15299999999999,1.25099999999998 1.31399999999999,1.25099999999998 C1.31399999999999,1.25099999999998 3.45099999999999,1.25099999999998 3.45099999999999,1.25099999999998 C3.62899999999999,1.25099999999998 3.75800000000001,1.28500000000008 3.83799999999999,1.35400000000004 C3.91800000000001,1.42200000000003 3.98500000000001,1.54099999999994 4.03800000000001,1.71199999999999 C4.03800000000001,1.71199999999999 5.40000000000001,6.03999999999996 5.40000000000001,6.03999999999996 C5.40000000000001,6.03999999999996 6.73699999999999,10.47 6.73699999999999,10.47 C6.73699999999999,10.47 6.816,10.47 6.816,10.47 C6.816,10.47 8.09800000000001,6.60300000000007 8.09800000000001,6.60300000000007 C8.09800000000001,6.60300000000007 8.92699999999999,4.24700000000007 8.92699999999999,4.24700000000007 C8.92699999999999,4.24700000000007 8.09800000000001,1.73800000000006 8.09800000000001,1.73800000000006 C8.06299999999999,1.61799999999994 8.06800000000001,1.50700000000006 8.11199999999999,1.40499999999997 C8.15700000000001,1.30199999999991 8.25,1.25099999999998 8.393,1.25099999999998 C8.393,1.25099999999998 10.369,1.25099999999998 10.369,1.25099999999998 C10.565,1.25099999999998 10.699,1.28500000000008 10.77,1.35400000000004 C10.842,1.42200000000003 10.904,1.54999999999995 10.957,1.73800000000006 C10.957,1.73800000000006 12.454,6.45000000000005 12.454,6.45000000000005 Z "/>
</svg>
