<?xml version="1.0" encoding="utf-8"?>
<!DOCTYPE svg PUBLIC "-//W3C//DTD SVG 1.1//EN" "http://www.w3.org/Graphics/SVG/1.1/DTD/svg11.dtd">
<svg version="1.1" baseProfile="full"
 xmlns="http://www.w3.org/2000/svg"
 xmlns:xlink="http://www.w3.org/1999/xlink"
 xmlns:ev="http://www.w3.org/2001/xml-events" 
  height="27px" 
  width="137px" 
>
<path fill="rgb( 255, 255, 255 )"
 d="M133.868,23.251 C133.975,23.443 134.168,23.597 134.441,23.71 C134.669,23.819 134.91,23.898 135.167,23.951 C135.433,24.005 135.71,24.043 135.993,24.065 C135.993,24.065 136.224,24.083 136.224,24.083 C136.224,24.083 136.224,25.684 136.224,25.684 C136.224,25.684 127.547,25.684 127.547,25.684 C127.547,25.684 127.547,24.085 127.547,24.085 C127.547,24.085 128.573,23.998 128.573,23.998 C128.824,23.976 129.043,23.935 129.228,23.874 C129.494,23.788 129.689,23.646 129.828,23.438 C129.969,23.227 130.041,22.939 130.041,22.584 C130.041,22.584 130.041,10.348 130.041,10.348 C130.041,10.348 125.892,10.348 125.892,10.348 C125.88,13.006 125.686,15.334 125.312,17.271 C124.924,19.273 124.415,20.932 123.798,22.202 C123.185,23.461 122.478,24.42 121.694,25.052 C120.894,25.697 120.06,26.023 119.213,26.023 C118.334,26.023 117.651,25.784 117.186,25.313 C117.018,25.143 116.891,24.957 116.783,24.763 C116.783,24.763 116.783,25.304 116.783,25.304 C116.783,25.304 116.618,25.364 116.618,25.364 C116.085,25.557 115.61,25.715 115.204,25.835 C114.781,25.96 114.298,26.023 113.768,26.023 C112.833,26.023 112.07,25.797 111.502,25.351 C111.018,24.971 110.678,24.442 110.489,23.773 C109.804,24.483 109.066,25.041 108.292,25.436 C107.417,25.882 106.354,26.108 105.133,26.108 C103.817,26.108 102.718,25.697 101.865,24.886 C101.008,24.071 100.574,22.995 100.574,21.685 C100.574,21.015 100.67,20.404 100.86,19.871 C101.051,19.334 101.341,18.844 101.723,18.415 C102.019,18.06 102.418,17.736 102.906,17.456 C103.379,17.185 103.83,16.965 104.246,16.804 C104.758,16.61 105.773,16.26 107.352,15.731 C108.768,15.258 109.768,14.876 110.329,14.595 C110.329,14.595 110.329,13.067 110.329,13.067 C110.329,12.976 110.313,12.761 110.238,12.256 C110.18,11.868 110.055,11.496 109.867,11.151 C109.659,10.767 109.36,10.426 108.978,10.137 C108.611,9.861 108.071,9.721 107.373,9.721 C106.886,9.721 106.428,9.804 106.013,9.967 C105.66,10.105 105.398,10.247 105.234,10.388 C105.248,10.591 105.298,10.872 105.384,11.227 C105.496,11.685 105.553,12.116 105.553,12.508 C105.553,12.975 105.346,13.402 104.938,13.777 C104.536,14.147 103.979,14.335 103.284,14.335 C102.632,14.335 102.142,14.095 101.829,13.62 C101.537,13.18 101.389,12.68 101.389,12.134 C101.389,11.56 101.592,11.006 101.992,10.489 C102.374,9.994 102.878,9.54600000000001 103.49,9.158 C104.017,8.83 104.659,8.55 105.4,8.324 C106.143,8.098 106.88,7.983 107.593,7.983 C108.553,7.983 109.405,8.05 110.123,8.182 C110.865,8.319 111.548,8.617 112.153,9.06699999999999 C112.762,9.509 113.232,10.118 113.549,10.876 C113.86,11.623 114.018,12.588 114.018,13.746 C114.018,15.37 114,16.819 113.967,18.053 C113.933,19.3 113.916,20.677 113.916,22.143 C113.916,22.538 113.981,22.849 114.11,23.068 C114.241,23.29 114.447,23.482 114.723,23.639 C114.819,23.697 115.012,23.764 115.412,23.776 C115.767,23.787 116.13,23.792 116.5,23.793 C116.498,23.745 116.487,23.701 116.487,23.653 C116.487,23.193 116.637,22.755 116.934,22.352 C117.248,21.923 117.707,21.706 118.297,21.706 C118.823,21.706 119.305,21.859 119.73,22.16 C120.07,22.399 120.404,22.721 120.725,23.116 C120.935,22.865 121.176,22.49 121.445,21.997 C121.803,21.343 122.136,20.517 122.435,19.543 C122.77,18.482 123.047,17.368 123.26,16.227 C123.471,15.092 123.578,13.772 123.578,12.304 C123.578,11.76 123.513,11.359 123.385,11.113 C123.262,10.876 123.07,10.695 122.8,10.56 C122.603,10.456 122.272,10.359 121.812,10.268 C121.336,10.174 120.943,10.109 120.645,10.076 C120.645,10.076 120.422,10.051 120.422,10.051 C120.422,10.051 120.422,8.458 120.422,8.458 C120.422,8.458 136.156,8.458 136.156,8.458 C136.156,8.458 136.156,10.06 136.156,10.06 C136.156,10.06 135.923,10.077 135.923,10.077 C135.602,10.099 135.322,10.127 135.084,10.16 C134.847,10.193 134.63,10.231 134.433,10.275 C134.194,10.344 134.012,10.481 133.892,10.69 C133.762,10.916 133.696,11.208 133.696,11.558 C133.696,11.558 133.696,22.415 133.696,22.415 C133.696,22.765 133.753,23.047 133.868,23.251 ZM108.173,17.239 C107.469,17.503 106.806,17.838 106.204,18.234 C105.674,18.595 105.247,19.03 104.939,19.526 C104.637,20.01 104.484,20.597 104.484,21.272 C104.484,22.134 104.705,22.77 105.139,23.16 C105.588,23.563 106.146,23.759 106.847,23.759 C107.598,23.759 108.266,23.575 108.833,23.212 C109.392,22.854 109.872,22.429 110.262,21.948 C110.262,21.948 110.356,16.509 110.356,16.509 C109.539,16.756 108.805,17.001 108.173,17.239 ZM97.822,14.145 C97.723,13.838 97.575,13.471 97.383,13.053 C97.19,12.635 96.975,12.233 96.744,11.858 C96.504,11.456 96.234,11.097 95.937,10.789 C95.668,10.511 95.389,10.35 95.108,10.312 C94.771,10.28 94.386,10.255 93.961,10.238 C93.647,10.226 93.366,10.218 93.119,10.215 C93.119,10.215 93.119,22.415 93.119,22.415 C93.119,22.749 93.185,23.024 93.317,23.229 C93.449,23.437 93.645,23.595 93.917,23.711 C94.149,23.817 94.414,23.896 94.71,23.95 C95.017,24.004 95.322,24.043 95.618,24.065 C95.618,24.065 95.85,24.082 95.85,24.082 C95.85,24.082 95.85,25.684 95.85,25.684 C95.85,25.684 86.817,25.684 86.817,25.684 C86.817,25.684 86.817,24.085 86.817,24.085 C86.817,24.085 87.045,24.065 87.045,24.065 C87.309,24.043 87.608,24.02 87.946,23.997 C88.259,23.976 88.511,23.935 88.695,23.874 C88.96,23.789 89.146,23.65 89.268,23.448 C89.398,23.233 89.463,22.943 89.463,22.584 C89.463,22.584 89.463,10.221 89.463,10.221 C89.169,10.231 88.849,10.242 88.501,10.255 C88.054,10.272 87.702,10.292 87.444,10.314 C87.213,10.331 86.951,10.494 86.663,10.797 C86.341,11.135 86.057,11.494 85.818,11.863 C85.59,12.231 85.373,12.652 85.176,13.108 C84.971,13.579 84.835,13.918 84.76,14.147 C84.76,14.147 84.703,14.318 84.703,14.318 C84.703,14.318 83.237,14.318 83.237,14.318 C83.237,14.318 83.237,8.458 83.237,8.458 C83.237,8.458 99.344,8.458 99.344,8.458 C99.344,8.458 99.344,14.318 99.344,14.318 C99.344,14.318 97.877,14.318 97.877,14.318 C97.877,14.318 97.822,14.145 97.822,14.145 ZM73.551,24.085 C73.551,24.085 74.586,23.998 74.586,23.998 C74.842,23.976 75.065,23.935 75.249,23.874 C75.515,23.788 75.71,23.646 75.85,23.438 C75.991,23.227 76.062,22.939 76.062,22.584 C76.062,22.584 76.062,14.435 76.062,14.435 C76.062,14.435 68.86,22.224 68.86,22.224 C68.86,22.224 68.86,22.415 68.86,22.415 C68.86,22.749 68.927,23.023 69.059,23.23 C69.191,23.437 69.387,23.595 69.659,23.711 C69.893,23.818 70.141,23.898 70.399,23.951 C70.664,24.005 70.947,24.043 71.241,24.065 C71.241,24.065 71.473,24.082 71.473,24.082 C71.473,24.082 71.473,25.684 71.473,25.684 C71.473,25.684 62.847,25.684 62.847,25.684 C62.847,25.684 62.847,24.085 62.847,24.085 C62.847,24.085 63.882,23.998 63.882,23.998 C64.138,23.976 64.361,23.935 64.545,23.874 C64.807,23.789 64.992,23.651 65.113,23.448 C65.242,23.234 65.307,22.944 65.307,22.584 C65.307,22.584 65.307,11.727 65.307,11.727 C65.307,11.403 65.239,11.131 65.107,10.917 C64.975,10.706 64.779,10.546 64.508,10.431 C64.23,10.302 63.963,10.217 63.71,10.176 C63.439,10.132 63.187,10.099 62.955,10.076 C62.955,10.076 62.729,10.054 62.729,10.054 C62.729,10.054 62.729,8.458 62.729,8.458 C62.729,8.458 71.354,8.458 71.354,8.458 C71.354,8.458 71.354,10.06 71.354,10.06 C71.354,10.06 71.122,10.077 71.122,10.077 C70.8,10.099 70.52,10.127 70.282,10.16 C70.045,10.193 69.829,10.231 69.631,10.275 C69.392,10.344 69.21,10.481 69.09,10.69 C68.96,10.916 68.894,11.207 68.894,11.558 C68.894,11.558 68.894,19.569 68.894,19.569 C68.894,19.569 76.095,11.766 76.095,11.766 C76.085,11.371 76.021,11.079 75.9,10.899 C75.77,10.704 75.567,10.546 75.297,10.431 C75.02,10.302 74.748,10.218 74.483,10.176 C74.201,10.132 73.943,10.099 73.71,10.076 C73.71,10.076 73.483,10.054 73.483,10.054 C73.483,10.054 73.483,8.458 73.483,8.458 C73.483,8.458 82.109,8.458 82.109,8.458 C82.109,8.458 82.109,10.06 82.109,10.06 C82.109,10.06 81.877,10.077 81.877,10.077 C81.555,10.099 81.275,10.127 81.037,10.16 C80.801,10.193 80.584,10.231 80.386,10.275 C80.147,10.344 79.965,10.481 79.845,10.69 C79.715,10.916 79.649,11.207 79.649,11.558 C79.649,11.558 79.649,22.415 79.649,22.415 C79.649,22.765 79.707,23.047 79.821,23.251 C79.93,23.446 80.117,23.596 80.394,23.71 C80.624,23.819 80.864,23.898 81.12,23.951 C81.386,24.005 81.664,24.043 81.946,24.065 C81.946,24.065 82.177,24.083 82.177,24.083 C82.177,24.083 82.177,25.684 82.177,25.684 C82.177,25.684 73.551,25.684 73.551,25.684 C73.551,25.684 73.551,24.085 73.551,24.085 ZM52.228,24.085 C52.228,24.085 53.254,23.998 53.254,23.998 C53.504,23.976 53.725,23.935 53.909,23.874 C54.175,23.788 54.37,23.646 54.509,23.438 C54.65,23.227 54.722,22.939 54.722,22.584 C54.722,22.584 54.722,10.348 54.722,10.348 C54.722,10.348 48.062,10.348 48.062,10.348 C48.062,10.348 48.062,22.415 48.062,22.415 C48.062,22.749 48.129,23.023 48.261,23.229 C48.393,23.437 48.589,23.595 48.861,23.711 C49.087,23.819 49.325,23.898 49.577,23.951 C49.837,24.005 50.111,24.043 50.394,24.065 C50.394,24.065 50.625,24.083 50.625,24.083 C50.625,24.083 50.625,25.684 50.625,25.684 C50.625,25.684 41.948,25.684 41.948,25.684 C41.948,25.684 41.948,24.085 41.948,24.085 C41.948,24.085 42.983,23.998 42.983,23.998 C43.239,23.976 43.461,23.935 43.646,23.874 C43.908,23.789 44.092,23.651 44.214,23.448 C44.342,23.234 44.407,22.944 44.407,22.584 C44.407,22.584 44.407,11.727 44.407,11.727 C44.407,11.403 44.34,11.131 44.207,10.917 C44.076,10.706 43.88,10.546 43.609,10.431 C43.331,10.302 43.064,10.217 42.81,10.176 C42.539,10.132 42.288,10.099 42.055,10.076 C42.055,10.076 41.829,10.054 41.829,10.054 C41.829,10.054 41.829,8.458 41.829,8.458 C41.829,8.458 60.836,8.458 60.836,8.458 C60.836,8.458 60.836,10.06 60.836,10.06 C60.836,10.06 60.604,10.077 60.604,10.077 C60.282,10.099 60.002,10.127 59.764,10.16 C59.528,10.193 59.311,10.231 59.113,10.275 C58.875,10.344 58.692,10.481 58.573,10.69 C58.443,10.916 58.377,11.207 58.377,11.558 C58.377,11.558 58.377,22.415 58.377,22.415 C58.377,22.765 58.435,23.047 58.549,23.251 C58.655,23.443 58.848,23.597 59.122,23.71 C59.35,23.819 59.59,23.898 59.848,23.951 C60.113,24.005 60.391,24.043 60.673,24.065 C60.673,24.065 60.904,24.083 60.904,24.083 C60.904,24.083 60.904,25.684 60.904,25.684 C60.904,25.684 52.228,25.684 52.228,25.684 C52.228,25.684 52.228,24.085 52.228,24.085 ZM39.172,25.835 C38.749,25.96 38.266,26.023 37.736,26.023 C36.801,26.023 36.039,25.797 35.47,25.351 C34.986,24.971 34.646,24.442 34.458,23.773 C33.772,24.483 33.034,25.041 32.26,25.436 C31.385,25.882 30.322,26.108 29.102,26.108 C27.786,26.108 26.686,25.697 25.833,24.886 C24.977,24.071 24.543,22.995 24.543,21.685 C24.543,21.015 24.639,20.404 24.829,19.871 C25.019,19.334 25.31,18.844 25.691,18.415 C25.987,18.06 26.386,17.736 26.874,17.456 C27.347,17.185 27.798,16.965 28.214,16.804 C28.726,16.61 29.742,16.26 31.32,15.731 C32.736,15.258 33.736,14.876 34.297,14.595 C34.297,14.595 34.297,13.067 34.297,13.067 C34.297,12.976 34.281,12.761 34.207,12.256 C34.148,11.868 34.023,11.496 33.835,11.151 C33.627,10.767 33.328,10.426 32.946,10.137 C32.58,9.861 32.04,9.721 31.341,9.721 C30.854,9.721 30.397,9.804 29.981,9.967 C29.628,10.105 29.367,10.247 29.203,10.388 C29.216,10.591 29.266,10.872 29.352,11.227 C29.464,11.685 29.521,12.116 29.521,12.508 C29.521,12.975 29.314,13.402 28.906,13.777 C28.504,14.147 27.947,14.335 27.252,14.335 C26.6,14.335 26.11,14.095 25.797,13.62 C25.505,13.18 25.357,12.68 25.357,12.134 C25.357,11.56 25.56,11.006 25.96,10.489 C26.343,9.994 26.847,9.54600000000001 27.458,9.158 C27.985,8.83 28.627,8.55 29.368,8.324 C30.111,8.098 30.849,7.983 31.561,7.983 C32.522,7.983 33.373,8.05 34.092,8.182 C34.833,8.319 35.517,8.617 36.121,9.06699999999999 C36.73,9.509 37.201,10.118 37.517,10.876 C37.828,11.623 37.986,12.588 37.986,13.746 C37.986,15.37 37.969,16.819 37.935,18.053 C37.901,19.301 37.884,20.677 37.884,22.143 C37.884,22.538 37.95,22.849 38.079,23.068 C38.209,23.29 38.415,23.482 38.691,23.639 C38.787,23.697 38.98,23.764 39.38,23.776 C39.746,23.788 40.12,23.793 40.501,23.793 C40.501,23.793 40.751,23.793 40.751,23.793 C40.751,23.793 40.751,25.304 40.751,25.304 C40.751,25.304 40.586,25.364 40.586,25.364 C40.054,25.557 39.578,25.715 39.172,25.835 ZM32.141,17.239 C31.437,17.503 30.774,17.838 30.172,18.234 C29.642,18.595 29.215,19.03 28.907,19.526 C28.605,20.01 28.452,20.597 28.452,21.272 C28.452,22.134 28.673,22.769 29.107,23.16 C29.556,23.563 30.115,23.759 30.815,23.759 C31.566,23.759 32.234,23.575 32.801,23.212 C33.36,22.854 33.84,22.429 34.231,21.948 C34.231,21.948 34.325,16.509 34.325,16.509 C33.507,16.756 32.773,17.001 32.141,17.239 ZM16.947,25.518 C16.488,24.22 16.032,23.015 15.59,21.935 C15.153,20.867 14.697,19.81 14.233,18.792 C13.492,17.126 12.743,15.993 12.006,15.421 C11.28,14.858 10.28,14.573 9.032,14.573 C9.032,14.573 8.045,14.573 8.045,14.573 C8.045,14.573 8.045,22.037 8.045,22.037 C8.045,22.373 8.108,22.673 8.232,22.931 C8.348,23.173 8.568,23.374 8.88800000000001,23.529 C9.044,23.598 9.369,23.69 9.84399999999999,23.799 C10.319,23.909 10.717,23.97 11.026,23.979 C11.026,23.979 11.268,23.988 11.268,23.988 C11.268,23.988 11.268,25.684 11.268,25.684 C11.268,25.684 0.776,25.684 0.776,25.684 C0.776,25.684 0.776,24 0.776,24 C0.776,24 2.14,23.879 2.14,23.879 C2.723,23.826 2.991,23.751 3.11199999999999,23.696 C3.40300000000001,23.57 3.605,23.393 3.732,23.154 C3.864,22.903 3.932,22.592 3.932,22.228 C3.932,22.228 3.932,4.857 3.932,4.857 C3.932,4.511 3.874,4.20999999999999 3.759,3.95999999999999 C3.655,3.73399999999999 3.43600000000001,3.542 3.108,3.387 C2.81699999999999,3.247 2.46599999999999,3.121 2.06399999999999,3.012 C1.66500000000001,2.904 1.31,2.83799999999999 1.008,2.816 C1.008,2.816 0.776,2.79900000000001 0.776,2.79900000000001 C0.776,2.79900000000001 0.776,1.11199999999999 0.776,1.11199999999999 C0.776,1.11199999999999 11.268,1.11199999999999 11.268,1.11199999999999 C11.268,1.11199999999999 11.268,2.80800000000001 11.268,2.80800000000001 C11.268,2.80800000000001 11.027,2.81699999999999 11.027,2.81699999999999 C10.724,2.828 10.337,2.877 9.877,2.965 C9.41800000000001,3.053 9.07599999999999,3.13500000000001 8.861,3.20999999999999 C8.544,3.322 8.336,3.499 8.229,3.751 C8.10599999999999,4.035 8.045,4.34999999999999 8.045,4.687 C8.045,4.687 8.045,12.682 8.045,12.682 C8.045,12.682 9.375,12.682 9.375,12.682 C9.756,12.682 10.136,12.598 10.503,12.432 C10.875,12.265 11.224,12.015 11.539,11.689 C12.001,11.217 12.377,10.63 12.658,9.94499999999999 C12.947,9.236 13.264,8.36499999999999 13.6,7.35599999999999 C13.918,6.41200000000001 14.25,5.527 14.588,4.726 C14.938,3.898 15.457,3.124 16.131,2.42700000000001 C16.594,1.953 17.146,1.575 17.772,1.303 C18.399,1.03 19.089,0.892 19.822,0.892 C20.333,0.892 20.787,0.956 21.172,1.08199999999999 C21.564,1.211 21.901,1.396 22.174,1.631 C22.427,1.846 22.621,2.104 22.749,2.399 C22.875,2.69 22.939,3.009 22.939,3.34699999999999 C22.939,3.62 22.898,3.89100000000001 22.817,4.151 C22.733,4.42100000000001 22.611,4.651 22.455,4.833 C22.28,5.045 22.079,5.21599999999999 21.861,5.33799999999999 C21.629,5.468 21.323,5.53100000000001 20.925,5.53100000000001 C20.517,5.53100000000001 20.154,5.461 19.847,5.322 C19.542,5.185 19.273,4.995 19.047,4.75700000000001 C18.83,4.52800000000001 18.632,4.25700000000001 18.46,3.95399999999999 C18.343,3.749 18.231,3.544 18.123,3.336 C17.929,3.498 17.757,3.687 17.61,3.898 C17.399,4.199 17.21,4.529 17.045,4.878 C16.881,5.23099999999999 16.734,5.60899999999999 16.608,6.002 C16.478,6.411 16.328,6.864 16.157,7.363 C16.022,7.78 15.863,8.249 15.681,8.765 C15.498,9.28700000000001 15.282,9.782 15.038,10.234 C14.785,10.716 14.486,11.205 14.149,11.684 C13.837,12.126 13.467,12.549 13.047,12.943 C14.234,13.305 15.242,13.863 16.047,14.604 C16.898,15.388 17.622,16.412 18.2,17.649 C18.517,18.341 18.864,19.084 19.242,19.881 C19.622,20.683 19.936,21.361 20.186,21.917 C20.516,22.633 20.834,23.113 21.129,23.343 C21.422,23.571 21.721,23.712 22.018,23.762 C22.306,23.806 22.62,23.848 22.956,23.888 C23.292,23.927 23.584,23.958 23.831,23.98 C23.831,23.98 24.059,24.001 24.059,24.001 C24.059,24.001 24.059,25.684 24.059,25.684 C24.059,25.684 17.006,25.684 17.006,25.684 C17.006,25.684 16.947,25.518 16.947,25.518 Z "/>
</svg>
